<mxfile host="app.diagrams.net" modified="2024-05-28T02:01:30.429Z" agent="Mozilla/5.0 (Windows NT 10.0; Win64; x64) AppleWebKit/537.36 (KHTML, like Gecko) Chrome/124.0.0.0 Safari/537.36" version="24.4.8" etag="YFe7b0Sx4OJ6oyB48lNv" type="github">
  <diagram name="第1頁" id="IBOb-Y75qbNmIehxphCz">
    <mxGraphModel>
      <root>
        <mxCell id="0" />
        <mxCell id="1" parent="0" />
      </root>
    </mxGraphModel>
  </diagram>
</mxfile>
